<?xml version="1.0" encoding="UTF-8" standalone="no"?>
<!DOCTYPE svg PUBLIC "-//W3C//DTD SVG 1.1//EN" "http://www.w3.org/Graphics/SVG/1.1/DTD/svg11.dtd">
<svg width="100%" height="100%" viewBox="0 0 2000 2000" version="1.1" xmlns="http://www.w3.org/2000/svg" xmlns:xlink="http://www.w3.org/1999/xlink" xml:space="preserve" xmlns:serif="http://www.serif.com/" style="fill-rule:evenodd;clip-rule:evenodd;stroke-linecap:round;stroke-linejoin:round;stroke-miterlimit:1.5;">
    <g transform="matrix(1,0,0,1,-3.039692,182.215668)">
        <path d="M1281.438,917.967L1281.438,1113.898C1281.438,1126.949 1270.842,1137.545 1257.791,1137.545L1210.497,1137.545C1197.446,1137.545 1186.85,1126.949 1186.85,1113.898L1186.85,917.967C1186.85,904.915 1197.446,894.32 1210.497,894.32L1257.791,894.32C1270.842,894.32 1281.438,904.915 1281.438,917.967Z" style="fill:rgb(235,27,33);"/>
    </g>
    <g transform="matrix(1,0,0,1,-3.039692,182.215668)">
        <g transform="matrix(1,0,0,1.059372,0,-49.341557)">
            <rect x="1215.309" y="831.051" width="33.554" height="63.269" style="fill:rgb(235,27,33);"/>
        </g>
        <g transform="matrix(1.045296,0,0,0.888388,-55.854706,79.031196)">
            <ellipse cx="1232.13" cy="651.341" rx="151.488" ry="179.71" style="fill:none;stroke:rgb(235,27,33);stroke-width:32.65px;"/>
        </g>
    </g>
    <g transform="matrix(1,0,0,1,-9.303552,182.215668)">
        <path d="M683.58,868.303C693.381,864.319 779.898,880.782 784.038,883.388C786.874,885.174 806.418,901.437 806.418,913.924C806.418,924.234 798.132,927.761 790.752,927.954C778.244,928.282 752.645,928.135 735.674,928.135C725.046,928.135 710.767,931.655 697.922,923.56C687.449,916.96 679.348,896.783 677.683,891.555C676.376,887.451 675.557,881.609 676.54,877.734C677.504,873.931 681.585,869.114 683.58,868.303ZM1073.736,566.61C939.555,565.529 844.03,565.501 813.785,566.711C808.615,566.918 785.755,570.163 764.801,608.938C732.984,667.819 723.235,726.754 723.235,726.754C720.238,726.892 710.046,707.461 707.81,706.978C703.72,706.095 678.714,707.969 655.772,711.973C645.819,713.711 630.88,720.218 627.95,722.92C624.569,726.04 608.539,745.306 648.322,765.646C654.845,768.981 664.543,773.517 664.543,773.517C664.543,773.517 640.953,793.66 629.65,827.11C614.161,872.944 627.016,988.262 626.967,1033.276C626.943,1054.599 628.88,1073.748 629.352,1097.199C629.517,1105.428 628.603,1113.474 646.879,1113.592C662.124,1113.69 690.991,1113.538 706.139,1113.77C727.921,1114.103 750.026,1113.595 764.448,1113.592C782.544,1113.588 779.994,1108.579 780.057,1097.762C780.105,1089.475 780.096,1051.107 780.096,1051.107C780.096,1051.107 802.55,1051.07 803.952,1051.154C830.919,1052.758 854.319,1053.949 879.411,1054.945C904.433,1055.938 929.464,1056.829 954.504,1057.13C983.601,1057.479 1020.834,1057.599 1053.992,1057.04C1087.306,1056.478 1145.202,1055.227 1154.392,1053.757C1154.683,1053.711 1154.129,1053.757 1154.129,1053.757C1153.202,1034.292 1153.481,1025.611 1153.385,1018.085C1153.338,1014.398 1153.404,1012.276 1150.264,1007.642C1149.247,1006.142 1147.828,1004.794 1146.019,1003.392C1145.132,1002.705 1144.309,1001.98 1143.545,1001.22C1141.861,999.547 1140.464,997.705 1139.311,995.726C1136.836,991.482 1135.659,986.99 1134.986,981.798C1134.521,978.211 1134.382,974.472 1134.426,970.683C1134.43,970.314 1134.627,946.621 1134.742,944.433C1076.425,944.433 956.477,944.31 898.16,944.31C897.265,944.31 896.401,944.3 895.566,944.28C891.581,944.183 888.261,943.859 885.45,943.324C881.566,942.586 878.656,941.445 876.316,939.948C874.45,938.756 872.946,937.337 871.599,935.715C868.176,931.596 865.764,926.17 861,919.818C858.546,916.547 854.888,910.438 851.788,903.671C849.811,899.357 848.062,894.775 846.996,890.491C846.346,887.876 845.95,885.372 845.914,883.106C845.869,880.383 846.343,878.005 847.516,876.196C848.463,874.734 849.868,873.643 851.824,873.042C852.777,872.749 853.862,872.572 855.088,872.524C876.245,871.711 933.072,872.624 1127.481,872.939L1127.481,873.661C1127.49,869.584 1127.45,860.074 1127.412,852.188L1127.481,852.092C1083.207,841.024 1076.227,799.19 1073.399,773.641C1073.278,772.548 1073.164,759.834 1073.056,758.804C1064.92,758.623 929.723,758.992 826.229,757.759C809.937,757.565 809.709,758.469 786.349,758.431C786.349,758.431 773.347,760.629 769.823,755.331C764.278,746.993 764.601,736.87 767.915,708.828C770.642,685.749 770.047,692.555 775.557,670.58C785.142,632.346 791.328,619.286 802.09,606.541C807.865,599.702 814.886,595.082 825.401,595.134C825.401,595.134 868.269,594.573 913.913,594.721C925.183,594.758 1058.539,592.36 1061.425,592.217C1062.694,592.155 1067.165,581.715 1074.048,567.042" style="fill:rgb(235,27,33);"/>
    </g>
</svg>
